/* XPM */
static char *_521856229724[] = {
/* columns rows colors chars-per-pixel */
"64 64 72 1 ",
"  c #D99039",
". c #EE9325",
"X c #E6922D",
"o c #F29422",
"O c #F39729",
"+ c #F3992C",
"@ c #F39C33",
"# c #F39F39",
"$ c #F4A13E",
"% c #BB8C58",
"& c #9D8875",
"* c #97877B",
"= c #AC8A66",
"- c #A5896E",
"; c #A9896A",
": c #CD8E46",
"> c #C68E4C",
", c #D08F42",
"< c #F4A544",
"1 c #F5A749",
"2 c #F5A94D",
"3 c #F5AC55",
"4 c #F5AF5A",
"5 c #F5B05D",
"6 c #F6B464",
"7 c #F6B76A",
"8 c #F7B96D",
"9 c #F6BB73",
"0 c #F7BE7B",
"q c #F8BF7A",
"w c #F8C17E",
"e c #5F7FB4",
"r c #577EBA",
"t c #637FAF",
"y c #3B7AD7",
"u c #3779DB",
"i c #2477EE",
"p c #2A78E8",
"a c #3279E0",
"s c #2177F2",
"d c #4F7DC3",
"f c #407BD2",
"g c #7A8397",
"h c #798399",
"j c #84848D",
"k c #918682",
"l c #818491",
"z c #F7C385",
"x c #F8C384",
"c c #F8C68A",
"v c #F7C88E",
"b c #F9C98E",
"n c #F9CC94",
"m c #F9CD99",
"M c #FAD19F",
"N c #FAD3A4",
"B c #FAD6AA",
"V c #FBD8AF",
"C c #FADBB4",
"Z c #FBDFBD",
"A c #FCE0BE",
"S c #FCE2C3",
"D c #FCE6CB",
"F c #FCE8CF",
"G c #FDEAD3",
"H c #FDEEDB",
"J c #FDF0DF",
"K c #FEF2E4",
"L c #FEF5EB",
"P c #FEF8EF",
"I c #FFF9F3",
"U c #FFFFFF",
/* pixels */
"UUUUUUUUUUUUUUUUUUUUUUUUUUUUUUUUUUUUUUUUUUUUUUUUUUUUUUUUUUUUUUUU",
"UUUUUUUUUUUUUUUUUUUUUUUUUFBc95322360mGLUUUUUUUUUUUUUUUUUUUUUUUUU",
"UUUUUUUUUUUUUUUUUUUUUKM5Ooooooooooooooo@8CIUUUUUUUUUUUUUUUUUUUUU",
"UUUUUUUUUUUUUUUUUUUA5OoooooooooooooooooooO+qGUUUUUUUUUUUUUUUUUUU",
"UUUUUUUUUUUUUUUUUC<oooooooooooooooooooooooooo6GUUUUUUUUUUUUUUUUU",
"UUUUUUUUUUUUUUUG2oooooooooooooooooooooooooooooOqIUUUUUUUUUUUUUUU",
"UUUUUUUUUUUUUUbOoooooooooooooooooooooooooooooooo#GUUUUUUUUUUUUUU",
"UUUUUUUUUUUUL3oooooooooooooooooooooooooooooooooooowIUUUUUUUUUUUU",
"UUUUUUUUUUUG<oooooooooooooooooooooooooooooooooooooo4IUUUUUUUUUUU",
"UUUUUUUUUUD+oooooooooooooooooooooooooooooooooooooooo1LUUUUUUUUUU",
"UUUUUUUUUDOoooooooooooooooooooooooooooooooooooooooooo<LUUUUUUUUU",
"UUUUUUUUK+oooooooooooooooooooooooooooooooooooooooooooo2UUUUUUUUU",
"UUUUUUUL#oooooooooooooooooooooooooooooooooooooooooooooo6UUUUUUUU",
"UUUUUUU3oooooooooooooooooooooooooooooooooooooooooooooooonUUUUUUU",
"UUUUUUnoooooooooooooooooooooooooooooooooooooooooooooooooOGUUUUUU",
"UUUUUHOoooooooooooooooooooooooooooooooooooooooooooooooooo1UUUUUU",
"UUUUU5ooooooooooooooooooooooooooooooooooooooooooooooooooooMUUUUU",
"UUUUSooooooooooooooooooooooooooooooooooooooooooooooooooooo@LUUUU",
"UUUU2oooooooooooooooooooooooooooooooooooooooooooooooooooooonUUUU",
"UUUDooooooooooooooooooooooooooooooooooooooooooooooooooooooo#IUUU",
"UUU7ooooooooo.ooooooooooooooooooooooooooooooooooooooooooooooCUUU",
"UUIOooooooooooooooooooooo.oooooooooooooooooooooooooooooooooo5UUU",
"UUSoo6AZZZZZAZZZZZZZZZZZCN0$oooooo&eeeeeeeeeeeeeeeeeeeee,oooOIUU",
"UUxooOSUUUUUUUUUUUUUUUUUUUUUZ#oooohssssssssisssssssssssgoooooGUU",
"UU@ooo@LUUUUUUUUUUUUUUUUUUUUUK$ooohsssssssssssssssssssd.ooooo9UU",
"UKooooo3UUUUUUUUUUUUUUUUUUUUUUV.oohssssssssssssssssssu oooooo<UU",
"USoooooocUUUUUUUUUUUUUUUUUUUUUIooogssssssssssssssssss%oooooooOIU",
"UNoooooo.3534555535555359KUUUUU@o.gsssssj%%%%%%%%%%%>.ooooooooLU",
"Unoooooooooooooooooooooo.nUUUUIOoohsssss=oo.ooooooooooooooooooHU",
"Uwoooo@333333333333333337JUUUUCooohssssstk*kkkkkkkkkkkk ooooooFU",
"UqooooOHUUUUUUUUUUUUUUUUUUUUUK$ooohssssssssssssssssssstoooooooDU",
"U9ooooo<IUUUUUUUUUUUUUUUUUUUL<.ooohssssssssssssssssssfXoooooooDU",
"Uqoooooo6UUUUUUUUUUUUUUUUUUUUL2.oohsssssssssssssssssp:ooooooooDU",
"U0oooooo.mUUUUPJKHHHHHHHPUUUUUKOoohsssssayyyyyyyyyyy=oooooooooFU",
"Uzooooooo5UUUUm..ooooooo.BUUUUU6oohsssss;oooooooooooooooooooooGU",
"UNooooooo5UUUUmoooooooo.ovUUUUUzoohsssss;ooooooooooooooooooooOKU",
"UDooo6nmmCUUUUFmnnmmmmmmBIUUUUUzoohsssssejlljgjggjllllll:oooooIU",
"UJoo.+KUUUUUUUUUUUUUUUUUUUUUUUU3oohsssssssssssisssssssir.oooo+UU",
"UIOooo3IUUUUUUUUUUUUUUUUUUUUUUHooohsssssssssssssssssssu ooooo4UU",
"UU1oooo0UUUUUUUUUUUUUUUUUUUUUP2ooohssssssssssssssssssi>oooooonUU",
"UUcoooooBUUUUUUUUUUUUUUUUUULN@oooohssssssssssssssssss*oooooooKUU",
"UUGoooooO99999999999999985<ooOoooo>-----------------=ooooooo#UUU",
"UUU<oooooooo.oooooooooooooooooooooooooooooooooooooooooooooooxUUU",
"UUUmooooooooooooooooooooooooooooooooooooooooooooooooooooooooHUUU",
"UUUI+oooooooooooooooooooooooooooooooooooooooooooooooooooooo5UUUU",
"UUUUxooooooooooooooooooooooooooooooooooooooooooooooooooooooDUUUU",
"UUUUP+oooooooooooooooooooooooooooooooooooooooooooooooooooo6UUUUU",
"UUUUUZoooooooooooooooooooooooooooooooooooooooooooooooooooOLUUUUU",
"UUUUUU2oooooooooooooooooooooooooooooooooooooooooooooooooobUUUUUU",
"UUUUUUHOoooooooooooooooooooooooooooooooooooooooooooooooo3IUUUUUU",
"UUUUUUUBooooooooooooooooooooooooooooooooooooooooooooooo+JUUUUUUU",
"UUUUUUUUwoooooooooooooooooooooooooooooooooooooooooooooOAUUUUUUUU",
"UUUUUUUUU7ooooooooooooooooooooooooooooooooooooooooooooNUUUUUUUUU",
"UUUUUUUUUI6ooooooooooooooooooooooooooooooooooooooooooMUUUUUUUUUU",
"UUUUUUUUUUI9oooooooooooooooooooooooooooooooooooooooOBUUUUUUUUUUU",
"UUUUUUUUUUUUMOoooooooooooooooooooooooooooooooooooo+SUUUUUUUUUUUU",
"UUUUUUUUUUUUUZ#oooooooooooooooooooooooooooooooooo3KUUUUUUUUUUUUU",
"UUUUUUUUUUUUUUL7oooooooooooooooooooooooooooooooOnUUUUUUUUUUUUUUU",
"UUUUUUUUUUUUUUUUS1oooooooooooooooooooooooooooo7KUUUUUUUUUUUUUUUU",
"UUUUUUUUUUUUUUUUUUD2oooooooooooooooooooooooO7LUUUUUUUUUUUUUUUUUU",
"UUUUUUUUUUUUUUUUUUUUFq@oooooooooooooooooo<nKUUUUUUUUUUUUUUUUUUUU",
"UUUUUUUUUUUUUUUUUUUUUUUKB5@oooooooooo$7MHUUUUUUUUUUUUUUUUUUUUUUU",
"UUUUUUUUUUUUUUUUUUUUUUUUUUUILKJHHKKIIUUUUUUUUUUUUUUUUUUUUUUUUUUU",
"UUUUUUUUUUUUUUUUUUUUUUUUUUUUUUUUUUUUUUUUUUUUUUUUUUUUUUUUUUUUUUUU"
};
