/* XPM */
static char *_521856207082[] = {
/* columns rows colors chars-per-pixel */
"32 32 102 2 ",
"   c #E7922B",
".  c #E9922A",
"X  c #F29422",
"o  c #F39523",
"O  c #F39524",
"+  c #F39625",
"@  c #F39727",
"#  c #F39729",
"$  c #F39829",
"%  c #F3982B",
"&  c #F39A2E",
"*  c #F29C32",
"=  c #F29D35",
"-  c #F49D34",
";  c #F3A03B",
":  c #F3A23F",
">  c #F4A23E",
",  c #B28A5F",
"<  c #95867D",
"1  c #A5896D",
"2  c #CD8E46",
"3  c #CA8E48",
"4  c #D38F40",
"5  c #C18D52",
"6  c #F4A341",
"7  c #F4A443",
"8  c #F4A74B",
"9  c #F4A94E",
"0  c #F5AA4F",
"q  c #F5AA50",
"w  c #F5AC54",
"e  c #F5AE57",
"r  c #F5AF5B",
"t  c #F6B05C",
"y  c #F5B15F",
"u  c #F5B466",
"i  c #F6B667",
"p  c #F7B669",
"a  c #F7BC76",
"s  c #F6BD78",
"d  c #F8C17E",
"f  c #567EBC",
"g  c #607FB2",
"h  c #2E78E4",
"j  c #2577ED",
"k  c #2877E9",
"l  c #2177F2",
"z  c #4D7DC5",
"x  c #487CCA",
"c  c #517DC1",
"v  c #407BD3",
"b  c #6E81A5",
"n  c #6580AC",
"m  c #6380B0",
"M  c #818491",
"N  c #F7C181",
"B  c #F7C588",
"V  c #F9C78B",
"C  c #F7CA92",
"Z  c #F9CA91",
"A  c #F8CB95",
"S  c #F9CF9B",
"D  c #F9CF9E",
"F  c #FAD09E",
"G  c #FAD2A3",
"H  c #FAD5A8",
"J  c #FAD7AC",
"K  c #FAD7AE",
"L  c #FBDAB1",
"P  c #FADAB3",
"I  c #FBDCB7",
"U  c #FADDB9",
"Y  c #FADDBA",
"T  c #FBE0BF",
"R  c #FCE2C3",
"E  c #FBE2C5",
"W  c #FCE5CA",
"Q  c #FCE6CB",
"!  c #FCE6CC",
"~  c #FDE8D0",
"^  c #FCE9D2",
"/  c #FCEBD5",
"(  c #FDEBD5",
")  c #FDECD7",
"_  c #FCECD9",
"`  c #FDEDD9",
"'  c #FDEFDD",
"]  c #FDEFDE",
"[  c #FDF0DF",
"{  c #FDF1E2",
"}  c #FEF3E5",
"|  c #FDF3E7",
" . c #FEF3E6",
".. c #FEF5EB",
"X. c #FDF6ED",
"o. c #FFF8EF",
"O. c #FFF9F2",
"+. c #FFFAF5",
"@. c #FFFBF5",
"#. c #FEFCF9",
"$. c #FEFCFA",
"%. c white",
/* pixels */
"%.%.%.%.%.%.%.%.%.%.%.%.$. .` ~ ( ' X.%.%.%.%.%.%.%.%.%.%.%.%.%.",
"%.%.%.%.%.%.%.%.%.O.S 9 + X X X X X X + t H +.%.%.%.%.%.%.%.%.%.",
"%.%.%.%.%.%.%.+.V & X X X X X X X X X X X X - F %.%.%.%.%.%.%.%.",
"%.%.%.%.%.%.( > X X X X X X X X X X X X X X X X t  .%.%.%.%.%.%.",
"%.%.%.%.%.I % X X X X X X X X X X X X X X X X X X * W %.%.%.%.%.",
"%.%.%.%.R + X X X X X X X X X X X X X X X X X X X X % [ %.%.%.%.",
"%.%.%.~ # X X X X X X X X X X X X X X X X X X X X X X -  .%.%.%.",
"%.%.+.6 X X X X X X X X X X X X X X X X X X X X X X X X r %.%.%.",
"%.%.Z X X X X X X X X X X X X X X X X X X X X X X X X X X L %.%.",
"%.+.& X X X X X X X X X X X X X X X X X X X X X X X X X X 7 %.%.",
"%.J X X X X X X X X X X X X X X X X X X X X + X X X X X X X ) %.",
"%.i * ~ ' ' ' ' ' [ ' ' ( J 9 X X g v v v v v v v v v f . X D %.",
"%.+ X i %.%.%.%.%.%.%.%.%.%.$.8 X z j l l l l l l l j 5 X X > %.",
"X.X X X s J J L J J K K ( %.%.C X z l l n b b b b b 1 X X X X $.",
"{ X X * : = : = = : = = N %.%.s X z l l 1 5 5 5 5 5 5 4 X X X @.",
"' X X r %.%.%.%.%.%.%.%.%.%.E # X z l l l l l l l l k 3 X X X O.",
"] X X X B %.%.O.X.X.X.X.#.%.+.i X z l l k h h h h h 1 X X X X O.",
" .X X X : %.%.t X X X X u %.%.Y X z l l 3 X X X X X X X X X X #.",
"+.X = E ^ %.%._ ! ! W W { %.%.L X z l l x f z f c c c g . X + %.",
"%.& X a %.%.%.%.%.%.%.%.%.%.$.t X z l l l l l l l l l , X X 9 %.",
"%.p X X C I Y Y Y Y Y Y L A 7 X X M n m m m g g n g < X X X J %.",
"%.Y X X X X X X X X X X X X + X X X X X X + X X X X X X X X  .%.",
"%.$.: X X X X X X X X X X X X X X X X X X X X X X X X X X r %.%.",
"%.%.T X X X X X X X X X X X X X X X X X X X X X X X X X + ` %.%.",
"%.%.%.t X X X X X X X X X X X X X X X X X X X X X X X X d %.%.%.",
"%.%.%...; X X X X X X X X X X X X X X X X X X X X X X 9 +.%.%.%.",
"%.%.%.%._ * X X X X X X X X X X X X X X X X X X X X 7 ..%.%.%.%.",
"%.%.%.%.%...6 X X X X X X X X X X X X X X X X X X 9 X.%.%.%.%.%.",
"%.%.%.%.%.%.O.p X X X X X X X X X X X X X X X + S %.%.%.%.%.%.%.",
"%.%.%.%.%.%.%.%.) t X X X X X X X X X X X X a { %.%.%.%.%.%.%.%.",
"%.%.%.%.%.%.%.%.%.%.' G w % X X X X $ w Z ' %.%.%.%.%.%.%.%.%.%.",
"%.%.%.%.%.%.%.%.%.%.%.%.%.%.$.$.+.$.%.%.%.%.%.%.%.%.%.%.%.%.%.%."
};
