/* XPM */
static char *_521856241016[] = {
/* columns rows colors chars-per-pixel */
"128 128 83 1 ",
"  c #F3931E",
". c #DC9036",
"X c #D4903E",
"o c #D9903A",
"O c #ED9326",
"+ c #E6922C",
"@ c #E9922A",
"# c #F29422",
"$ c #F29729",
"% c #F3992C",
"& c #E09132",
"* c #F39C33",
"= c #F39F39",
"- c #F4A13D",
"; c #B98C5A",
": c #9A8777",
"> c #998779",
", c #A7896B",
"< c #AB8968",
"1 c #B18A61",
"2 c #A08871",
"3 c #CD8E45",
"4 c #CB8E48",
"5 c #D28F40",
"6 c #C18D51",
"7 c #F4A442",
"8 c #F4A74A",
"9 c #F4A94C",
"0 c #F5AC54",
"q c #F5AF59",
"w c #F5B15D",
"e c #F6B363",
"r c #F6B76A",
"t c #F6B86C",
"y c #F7BC74",
"u c #F7BE79",
"i c #F7C07D",
"p c #5E7FB4",
"a c #537DBE",
"s c #3C7AD6",
"d c #377ADC",
"f c #397AD9",
"g c #1E76F4",
"h c #2D78E5",
"j c #2777EC",
"k c #2B78E8",
"l c #2177F2",
"z c #4C7DC7",
"x c #457BCD",
"c c #507DC2",
"v c #417BD1",
"b c #75829C",
"n c #7A8399",
"m c #6D81A6",
"M c #6980A9",
"N c #7282A1",
"B c #8B8587",
"V c #818491",
"C c #F7C384",
"Z c #F8C384",
"A c #F8C78C",
"S c #F8C88F",
"D c #F9CB93",
"F c #F9CE9A",
"G c #FAD09E",
"H c #F9D3A5",
"J c #FAD6AB",
"K c #FAD8AF",
"L c #FBDBB4",
"P c #FBDEBB",
"I c #FBE0BF",
"U c #FBE2C3",
"Y c #FCE6CB",
"T c #FCE8CF",
"R c #FCE9D2",
"E c #FDEEDC",
"W c #FDF0DF",
"Q c #FDF2E4",
"! c #FEF6EC",
"~ c #FEF8EF",
"^ c #FEF7F0",
"/ c #FFFAF4",
"( c #FFFFFF",
/* pixels */
"((((((((((((((((((((((((((((((((((((((((((((((((((((((((((((((((((((((((((((((((((((((((((((((((((((((((((((((((((((((((((((((((",
"((((((((((((((((((((((((((((((((((((((((((((((((((((((((((((((((((((((((((((((((((((((((((((((((((((((((((((((((((((((((((((((((",
"((((((((((((((((((((((((((((((((((((((((((((((((((((((((QEPHGDSAASDFHKRQ/(((((((((((((((((((((((((((((((((((((((((((((((((((((((",
"((((((((((((((((((((((((((((((((((((((((((((((((((!UD0$ #################$8iLQ((((((((((((((((((((((((((((((((((((((((((((((((((",
"((((((((((((((((((((((((((((((((((((((((((((((!Ur$############################$0LQ((((((((((((((((((((((((((((((((((((((((((((((",
"(((((((((((((((((((((((((((((((((((((((((((^J-####################################*SQ(((((((((((((((((((((((((((((((((((((((((((",
"(((((((((((((((((((((((((((((((((((((((((I7#$########################################=H^((((((((((((((((((((((((((((((((((((((((",
"((((((((((((((((((((((((((((((((((((((!C$ ########################################### ##eE((((((((((((((((((((((((((((((((((((((",
"((((((((((((((((((((((((((((((((((((Qe####################################################7Y((((((((((((((((((((((((((((((((((((",
"((((((((((((((((((((((((((((((((((!e########################################################7R((((((((((((((((((((((((((((((((((",
"(((((((((((((((((((((((((((((((((u############################################################qQ((((((((((((((((((((((((((((((((",
"(((((((((((((((((((((((((((((((L$###############################################################A(((((((((((((((((((((((((((((((",
"(((((((((((((((((((((((((((((!0##################################################################*R(((((((((((((((((((((((((((((",
"((((((((((((((((((((((((((((H$################################################################### #u((((((((((((((((((((((((((((",
"((((((((((((((((((((((((((/w########################################################################=Q((((((((((((((((((((((((((",
"(((((((((((((((((((((((((E%######################################################################### #L(((((((((((((((((((((((((",
"((((((((((((((((((((((((L##############################################################################Z((((((((((((((((((((((((",
"(((((((((((((((((((((((A################################################################################0(((((((((((((((((((((((",
"((((((((((((((((((((((e##################################################################################-^(((((((((((((((((((((",
"(((((((((((((((((((((q####################################################################################=!((((((((((((((((((((",
"((((((((((((((((((((0######################################################################################%~(((((((((((((((((((",
"(((((((((((((((((((0########################################################################################%~((((((((((((((((((",
"((((((((((((((((((w##########################################################################################*^(((((((((((((((((",
"(((((((((((((((((C############################################################################################9(((((((((((((((((",
"((((((((((((((((F##############################################################################################w((((((((((((((((",
"(((((((((((((((U################################################################################################A(((((((((((((((",
"((((((((((((((!$##############################O##################################################################U((((((((((((((",
"((((((((((((((-##################################################################$###############################$!(((((((((((((",
"(((((((((((((Z####################################################################################################9(((((((((((((",
"((((((((((((R##################################################################################################### S((((((((((((",
"((((((((((((*###############################################$#######################################################W(((((((((((",
"(((((((((((u########################################################################################################-(((((((((((",
"((((((((((W##########################################################################################################H((((((((((",
"((((((((((9##########################################################################################################$^(((((((((",
"(((((((((I############################################################################################################u(((((((((",
"(((((((((*#############################################################################################################Q((((((((",
"((((((((H##############################################################################################################e((((((((",
"((((((((*###############################################################################################################Q(((((((",
"(((((((P################################################################################################################y(((((((",
"(((((((=#################################################################################################################^((((((",
"((((((R############################################################################################$###############$#####D((((((",
"((((((e##################################################################################################################$((((((",
"(((((^####################################################################################################################U(((((",
"(((((K################################ O##################################################################################w(((((",
"(((((-##########O##############$#######$########O##############################################$###########################/((((",
"((((!#####uHHHHHHHHHHHHHHHHHHHHHHHHHHHHHHHHHHHHHGFCe7################2NNNNNNNNNNNNNNNNNNNNNNNNNNNbNNNNNNNNNNNNNNbb+########I((((",
"((((J#####=!(((((((((((((((((((((((((((((((((((((((((^Py$############mllllllllllllllllllllllllllglllllllllllllllg:#########w((((",
"((((8######q((((((((((((((((((((((((((((((((((((((((((((!C$##########mlllllllllllllllllllllllllllllllllllllllllgp###########((((",
"((((########A(((((((((((((((((((((((((((((((((((((((((((((R-#########mlllllllllllllllllllllllllllllllllllllllllv############R(((",
"(((R########OP(((((((((((((((((((((((((((((((((((((((((((((!7########mllllllllllllllllllllllllllllllllllllllllk5 ###########D(((",
"(((G#########*Q(((((((((((((((((((((((((((((((((((((((((((((EO#######mllllllllllllllllllllllllllllllllllllllll<#############7(((",
"(((9##########9/(((((((((((((((((((((((((((((((((((((((((((((A#######mllllllllllllllllllllllllllllllllllllllln###############(((",
"(((############u(((((((((((((((((((((((((((((((((((((((((((((!O######mllllllllllllllllllllllllllllllllllllllc$###############Q((",
"((~#############K(((((((((((((((((((((((((((((((((((((((((((((0####$#mlllllllllllllllllllllllllllllllllllllh&################U((",
"((T#############$E((((((((((((((((((((((((((((((((((((((((((((i######mlllllllllllllllljllllllllllllllllllll;################ S((",
"((H#############O-SSSSSSSSSSSSSSSSSSSSSSAAAAAAAAFU((((((((((((F######mlllllllllllMBBBBBBVBBBBBBBBBBBBBBBBB<##################0((",
"((u###############################################w(((((((((((F######mlllllllllll2%##########################################*((",
"((0################################################E((((((((((C######mlllllllllljB############################################((",
"((=############ ###################################E((((((((((w######mlllllllllll2############################################^(",
"((#############O#################################O0((((((((((^$######mlllllllllll2 $#         ##                ##############Q(",
"((##########=uuuuuuuuuuuuuuuuuuuuuuuuuuuuuuuuuuuCL(((((((((((D#######mlllllllllllhddddddssddddddddddvddddddddddp##############E(",
"((########## L((((((((((((((((((((((((((((((((((((((((((((((Q@#######mllllllllllllllllllllllllllllllllllllllllho##############E(",
"(/###########$E((((((((((((((((((((((((((((((((((((((((((((Q7########mllllllllllllllllllllllllllllllllllllllll;###############T(",
"(^############7^((((((((((((((((((((((((((((((((((((((((((L*#########mllllllllllllllllllllllllllllllllllllllgB################Y(",
"(/############$e(((((((((((((((((((((((((((((((((((((((((RwO#########mllllllllllllllllllllllllllllllllllllllMO################T(",
"(^############# D((((((((((((((((((((((((((((((((((((((((((P*########mllllllllllllllllllllllllllllllllllllls+$################Y(",
"(/##############OU((((((((((((((((((((((((((((((((((((((((((W= ######mllllllllllllllllllllllllllllllllllllk3O#################T(",
"((##############O*Q((((((((((((((((((((((((((((((((((((((((((TO######mllllllllllllllllllllllllllllllllllll,##################$R(",
"(( ############# #9((((((((((^^!^WQQWQQQQQQQQQQW!(((((((((((((u######mllllllllllljkhhhhhkkhkkkhhkhkhkhkkhn####################E(",
"((#################Q((((((((W O# O         O   O =G(((((((((((EO#####mlllllllllll># $## ## ### ###############################Q(",
"((*############### Q((((((((Q ####OO######  ######OR(((((((((((=#####mlllllllllll>############################################~(",
"((8############### Q((((((((Q ############OO#######J(((((((((((w#####mlllllllllll>########################################### ((",
"((r################Q((((((((Q#####################OR(((((((((((t#####mlllllllllll>###########################################$((",
"((H########  # O##OQ((((((((W #O#  O ## ## ## ## $S((((((((((((r#####mlllllllllll:#  #### # # # #  # ### ##  ## #  ##########9((",
"((U###### FTRTTTYYT/((((((((/RRRTTTTTTTTTTRRTTTTE/(((((((((((((w#####mlllllllllllfzzzzzzzzzzzzzzzzzzzzzzzzczzzzzzc.##########i((",
"((Q#######=!(((((((((((((((((((((((((((((((((((((((((((((((((((=#####mllllllllllllllllllllllllllllllllllllllllllg2###########J((",
"(((########q((((((((((((((((((((((((((((((((((((((((((((((((((Q #####mllllllllllllllllllllllllllllllllllllllllllm############E((",
"(((7########C(((((((((((((((((((((((((((((((((((((((((((((((((F######mlllllllllllllllllllllllllllllllllllllllllxO############(((",
"(((A########OL(((((((((((((((((((((((((((((((((((((((((((((((/-######mllllllllllllllllllllllllllllllllllllllllkX############=(((",
"(((U#########@E((((((((((((((((((((((((((((((((((((((((((((((C ######mllllllllllllllllllllllllllllllllllllllll1#############i(((",
"(((^##########8/((((((((((((((((((((((((((((((((((((((((((((D########mlllllllllllllllllllllllllllllllllllllgjV##############U(((",
"((((-##########y((((((((((((((((((((((((((((((((((((((((((!yO########mlllllllllllllllllllllllllllllllllllllgaO##############/(((",
"((((D########## H(((((((((((((((((((((((((((((((((((((((QS*O#########mllllllllllllllllllllllllllllllllglllgd.##############7((((",
"((((Q###########$T(((((((((((((((((((((((((((((((((/QUS0### #########Mllggggggggggggggggggggggggggggggggggj6###############K((((",
"(((((%###########*88888888888888888888888888888887*$ ################o444444444444444444444444444444444444X ###############!((((",
"(((((D############################################O ###################$##################################################7(((((",
"(((((Q####################################################################################################################L(((((",
"((((((7################################################################################################################# $/(((((",
"((((((U###################O################################################$#############################################u((((((",
"((((((($#################################################################################################################E((((((",
"(((((((G################################################################################################################0(((((((",
"(((((((^$##################################################################################$############################Y(((((((",
"((((((((C##############################################################################################################-((((((((",
"((((((((^$#############################################################################################################Y((((((((",
"(((((((((G############################################################################################################0(((((((((",
"((((((((((%############################################## O#####################################################$#### Q(((((((((",
"((((((((((U##########################################################################################################u((((((((((",
"(((((((((((0########################################################################################################$(((((((((((",
"(((((((((((!#############$##########################################################################################P(((((((((((",
"((((((((((((H######################################################################################################w((((((((((((",
"(((((((((((((0####################################################################################################$/((((((((((((",
"(((((((((((((/$###################################################################################################R(((((((((((((",
"((((((((((((((Y##################################################################################################S((((((((((((((",
"(((((((((((((((D################################################################################################0(((((((((((((((",
"((((((((((((((((e##############################################################################################=((((((((((((((((",
"(((((((((((((((((9#######################################$####################################################%!((((((((((((((((",
"(((((((((((((((((^-###########################################################################################E(((((((((((((((((",
"((((((((((((((((((^%#########################################################################################Y((((((((((((((((((",
"(((((((((((((((((((!*#######################################################################################Y(((((((((((((((((((",
"((((((((((((((((((((!*#####################################################################################Y((((((((((((((((((((",
"(((((((((((((((((((((^=##################################################################################$R(((((((((((((((((((((",
"((((((((((((((((((((((/0################################################################################*Q((((((((((((((((((((((",
"((((((((((((((((((((((((y############################$#################O###############################9^(((((((((((((((((((((((",
"(((((((((((((((((((((((((H#########################################################$################# y(((((((((((((((((((((((((",
"((((((((((((((((((((((((((E*#########################################################################J((((((((((((((((((((((((((",
"(((((((((((((((((((((((((((/w######################################################################-Q(((((((((((((((((((((((((((",
"(((((((((((((((((((((((((((((P$###################################################################S(((((((((((((((((((((((((((((",
"((((((((((((((((((((((((((((((/t############################################################### 9Q((((((((((((((((((((((((((((((",
"((((((((((((((((((((((((((((((((E-############################################################%L((((((((((((((((((((((((((((((((",
"((((((((((((((((((((((((((((((((((P%########################################################$S((((((((((((((((((((((((((((((((((",
"((((((((((((((((((((((((((((((((((((H*####################################################$Z^(((((((((((((((((((((((((((((((((((",
"((((((((((((((((((((((((((((((((((((((I-################################################%H/(((((((((((((((((((((((((((((((((((((",
"((((((((((((((((((((((((((((((((((((((((Eu$###########################################qU((((((((((((((((((((((((((((((((((((((((",
"((((((((((((((((((((((((((((((((((((((((((/Uq######################################-J^((((((((((((((((((((((((((((((((((((((((((",
"(((((((((((((((((((((((((((((((((((((((((((((/Uu$ #############################$wL~(((((((((((((((((((((((((((((((((((((((((((((",
"(((((((((((((((((((((((((((((((((((((((((((((((((!Iu7######################*rLE(((((((((((((((((((((((((((((((((((((((((((((((((",
"((((((((((((((((((((((((((((((((((((((((((((((((((((((!EJGe09-*$%%=70qFHYQ((((((((((((((((((((((((((((((((((((((((((((((((((((((",
"(((((((((((((((((((((((((((((((((((((((((((((((((((((((((((((((((((((((((((((((((((((((((((((((((((((((((((((((((((((((((((((((("
};
