/* XPM */
static char *_521856192536[] = {
/* columns rows colors chars-per-pixel */
"16 16 77 1 ",
"  c #D58F3D",
". c #DE9134",
"X c #DA9038",
"o c #EF9323",
"O c #F29422",
"+ c #F39524",
"@ c #F39727",
"# c #F39728",
"$ c #F2982B",
"% c #F3992B",
"& c #F2992D",
"* c #F39A2E",
"= c #F29C32",
"- c #F4A23F",
"; c #9F8873",
": c #9E8874",
"> c #99877A",
", c #AA8A69",
"< c #A28870",
"1 c #CE8E44",
"2 c #F4A442",
"3 c #F5A646",
"4 c #F5AA4F",
"5 c #F4AA51",
"6 c #F5AD55",
"7 c #F5B363",
"8 c #F6B566",
"9 c #F6B86D",
"0 c #F6BA71",
"q c #F7BB71",
"w c #617FB1",
"e c #367ADC",
"r c #397AD9",
"t c #2177F2",
"y c #477CCB",
"u c #447BCE",
"i c #6A80A8",
"p c #7182A2",
"a c #86848C",
"s c #908683",
"d c #F7C180",
"f c #F7C587",
"g c #F8C588",
"h c #F8C98E",
"j c #F9CD96",
"k c #F8CE9A",
"l c #F9CF9D",
"z c #FAD4A7",
"x c #FAD6A9",
"c c #FAD7AC",
"v c #FAD8AE",
"b c #FAD9B0",
"n c #FBDAB2",
"m c #FADAB5",
"M c #FBDFBC",
"N c #FBE1C3",
"B c #FCE2C2",
"V c #FBE2C4",
"C c #FCE3C4",
"Z c #FCE4C6",
"A c #FBE5CA",
"S c #FCE6CC",
"D c #FDE8D0",
"F c #FCE9D3",
"G c #FCEBD6",
"H c #FDECD7",
"J c #FDEEDC",
"K c #FDEFDF",
"L c #FDF1E1",
"P c #FDF2E5",
"I c #FEF6ED",
"U c #FEF7EE",
"Y c #FFF8EF",
"T c #FEF9F3",
"R c #FEF9F4",
"E c #FEFCF9",
"W c white",
/* pixels */
"WWWWWKzhhcHWWWWW",
"WWWC-OOOOOO3LWWW",
"WWb+OOOOOOOO+CWW",
"WB+OOOOOOOOO+ODW",
"W2OOOOOOOOOOOO5W",
"L5dddd0&1>>>>:oU",
"x=AGGGRm<tuyy:OM",
"j=llllKk:tipp<Ox",
"jObFgfGB:tassX+b",
"m8RRPPEB:terrioZ",
"KO79997$ ,,,,XoR",
"W6OOOOOOOOOOOO8W",
"WL#OOOOOOOOOO&YW",
"WWC$OOOOOOOO&ZWW",
"WWWL8OO+OOO0TWWW",
"WWWWWTZnbAUWWWWW"
};
